<?xml version="1.0" encoding="UTF-8"?><svg id="Capa_1" xmlns="http://www.w3.org/2000/svg" viewBox="0 0 433.2 438.09"><defs><style>.cls-1{stroke-linejoin:round;}.cls-1,.cls-2,.cls-3{stroke:#1d1d1b;}.cls-1,.cls-3{fill:none;stroke-width:11px;}.cls-2{fill:#fff;stroke-width:12px;}.cls-2,.cls-3{stroke-miterlimit:10;}.cls-4{fill:#1d1d1b;stroke-width:0px;}</style></defs><circle class="cls-2" cx="216.6" cy="58.2" r="52.2"/><path class="cls-4" d="m194.94,56.09c.36,2.66.06.25.03-.42-.04-1.06-.02-2.13.06-3.19.03-.35.08-.69.1-1.04.04-.54-.11.72-.09.65.04-.18.06-.38.09-.56.13-.79.3-1.58.5-2.36.19-.73.42-1.46.68-2.17.03-.07.15-.55.24-.63-.36.33-.36.78-.1.24.21-.42.41-.85.63-1.27.44-.82.97-1.57,1.47-2.36.38-.6-.55.63-.08.09.13-.15.25-.31.38-.45.4-.46.81-.91,1.25-1.33.34-.34.7-.65,1.06-.97.68-.61.06-.07-.09.04.2-.15.41-.31.62-.45.8-.56,1.65-1.06,2.53-1.49.16-.08.32-.14.48-.22.61-.31-.88.33-.24.1.37-.13.73-.28,1.1-.4.81-.26,1.63-.48,2.47-.64.24-.05,1.39-.22.52-.1-.94.12.45-.04.63-.05.67-.05,1.33-.07,2-.07s1.4.04,2.09.11c.1.01.21.02.31.03.83.07-.54-.07-.66-.09.25.05.51.08.76.12.53.09,1.06.2,1.58.35,2.51.74,5.56-.89,6.15-3.49.61-2.68-.81-5.36-3.49-6.15-5.53-1.63-11.94-1.03-17.19,1.18-9.05,3.82-14.36,12.45-15.55,21.94-.33,2.6-.24,5.12.11,7.7s3.82,4.25,6.15,3.49c2.86-.93,3.87-3.36,3.49-6.15h0Z"/><circle class="cls-2" cx="58.2" cy="379.89" r="52.2"/><path class="cls-4" d="m36.54,377.78c.36,2.66.06.25.03-.42-.04-1.06-.02-2.13.06-3.19.03-.35.08-.69.1-1.04.04-.54-.11.72-.09.65.04-.18.06-.38.09-.56.13-.79.3-1.58.5-2.36.19-.73.42-1.46.68-2.17.03-.07.15-.55.24-.63-.36.33-.36.78-.1.24.21-.42.41-.85.63-1.27.44-.82.97-1.57,1.47-2.36.38-.6-.55.63-.08.09.13-.15.25-.31.38-.45.4-.46.81-.91,1.25-1.33.34-.34.7-.65,1.06-.97.68-.61.06-.07-.09.04.2-.15.41-.31.62-.45.8-.56,1.65-1.06,2.53-1.49.16-.08.32-.14.48-.22.61-.31-.88.33-.24.1.37-.13.73-.28,1.1-.4.81-.26,1.63-.48,2.47-.64.24-.05,1.39-.22.52-.1-.94.12.45-.04.63-.05.67-.05,1.33-.07,2-.07s1.4.04,2.09.11c.1.01.21.02.31.03.83.07-.54-.07-.66-.09.25.05.51.08.76.12.53.09,1.06.2,1.58.35,2.51.74,5.56-.89,6.15-3.49s-.81-5.36-3.49-6.15c-5.53-1.63-11.94-1.03-17.19,1.18-9.05,3.82-14.36,12.45-15.55,21.94-.33,2.6-.24,5.12.11,7.7s3.82,4.25,6.15,3.49c2.86-.93,3.87-3.36,3.49-6.15h0Z"/><circle class="cls-2" cx="375" cy="379.89" r="52.2"/><path class="cls-4" d="m353.34,377.78c.36,2.66.06.25.03-.42-.04-1.06-.02-2.13.06-3.19.03-.35.08-.69.1-1.04.04-.54-.11.72-.09.65.04-.18.06-.38.09-.56.13-.79.3-1.58.5-2.36.19-.73.42-1.46.68-2.17.03-.07.15-.55.24-.63-.36.33-.36.78-.1.24.21-.42.41-.85.63-1.27.44-.82.97-1.57,1.47-2.36.38-.6-.55.63-.08.09.13-.15.25-.31.38-.45.4-.46.81-.91,1.25-1.33.34-.34.7-.65,1.06-.97.68-.61.06-.07-.09.04.2-.15.41-.31.62-.45.8-.56,1.65-1.06,2.53-1.49.16-.08.32-.14.48-.22.61-.31-.88.33-.24.1.37-.13.73-.28,1.1-.4.81-.26,1.63-.48,2.47-.64.24-.05,1.39-.22.52-.1-.94.12.45-.04.63-.05.67-.05,1.33-.07,2-.07s1.4.04,2.09.11c.1.01.21.02.31.03.83.07-.54-.07-.66-.09.25.05.51.08.76.12.53.09,1.06.2,1.58.35,2.51.74,5.56-.89,6.15-3.49.61-2.68-.81-5.36-3.49-6.15-5.53-1.63-11.94-1.03-17.19,1.18-9.05,3.82-14.36,12.45-15.55,21.94-.33,2.6-.24,5.12.11,7.7s3.82,4.25,6.15,3.49c2.86-.93,3.87-3.36,3.49-6.15h0Z"/><line class="cls-3" x1="216.6" y1="110.4" x2="216.6" y2="222.36"/><polyline class="cls-1" points="58.2 327.69 58.2 222.36 375 222.36 375 328.37"/></svg>